<svg width="291" height="61" viewBox="0 0 291 61" fill="none" xmlns="http://www.w3.org/2000/svg">
<path d="M28.9879 11.887C23.5041 11.8525 22.7863 16.7135 22.7863 16.7135C24.8153 16.6137 24.8631 13.5266 27.4184 13.7196C25.3321 15.8899 26.3561 19.1039 26.3561 19.1039L27.5045 19.5018L29.1028 19.0814C29.1028 19.0814 31.3231 16.7758 30.701 14.2781C33.3903 16.2428 30.8446 18.0079 34.0985 20.3877C34.0985 20.3877 35.7254 17.7526 34.577 15.3697C37.4194 17.4223 36.3475 20.8982 40.4244 21.6265C37.3332 18.9538 40.2809 13.1647 30.1555 11.9621C29.744 11.9133 29.3612 11.8893 28.9879 11.887ZM19.1783 16.664C6.40102 16.6332 9.73627 22.8727 9.15918 28.158C12.3432 26.236 9.68172 21.4763 12.6466 19.6895C11.5029 21.2661 13.0017 25.1175 13.0017 25.1175C16.2498 23.0453 11.9662 18.0454 20.4608 16.6865C20.011 16.6722 19.5899 16.6647 19.1783 16.664ZM23.2744 20.3802C19.5803 20.3802 16.4699 22.0319 16.5656 24.7271C10.7565 26.5138 13.2735 35.3727 13.2735 41.0708C17.1781 38.0153 13.4084 30.9583 16.4891 28.5409L17.6854 36.5063C20.767 33.8261 17.5131 28.2631 20.4703 25.6955L21.2264 31.3261C23.552 29.149 21.0924 22.7751 26.4422 20.7781C25.3799 20.5078 24.2985 20.3727 23.2744 20.3802ZM30.4043 20.703C26.7963 20.6129 23.6668 24.0739 26.6815 27.9853C26.6815 27.9853 26.7485 25.0649 28.5285 23.9312C30.1938 25.5379 27.4279 29.6744 30.4713 32.5949L31.9069 25.4703C34.9406 28.1279 31.2465 33.233 33.9645 35.6054L35.8977 29.7495C38.5678 33.1879 35.3139 38.6159 38.9219 41.4612C38.7688 39.0889 44.1664 29.0214 36.4528 26.0559C35.2373 22.2721 32.7203 20.7556 30.4043 20.703ZM40.702 22.8727C38.5487 22.8651 36.893 23.173 36.893 23.173C43.8028 23.4357 43.5156 28.0829 43.5156 28.0829C49.4875 29.6369 47.6692 36.0033 48.875 37.6024C50.9709 31.4538 46.8557 26.5513 46.8557 26.5513C46.8557 26.5513 49.2483 27.3922 50.2723 30.6354C50.7029 24.0439 44.8076 22.8877 40.702 22.8727ZM24.6334 29.2466C24.777 30.4102 23.3988 32.0319 23.3988 32.0319C23.3988 32.0319 23.8582 33.5483 27.9735 32.8727C27.9735 32.8727 26.9877 32.3021 26.7102 30.7555C25.3895 30.3201 24.6334 29.2466 24.6334 29.2466ZM21.4944 33.9237C21.4944 33.9237 21.1785 36.2361 21.8963 38.706C22.6715 41.3711 23.6668 38.5108 23.552 36.2436C26.5666 37.0393 23.1404 39.4868 26.825 41.6639L27.1983 37.3997C30.3852 38.1429 26.9781 42.2345 29.6291 43.0529C31.591 41.4087 31.9356 38.4808 29.9354 36.8291C27.2748 34.6294 24.2219 36.176 21.4944 33.9237ZM32.3758 37.0543C33.8113 39.6069 34.175 44.3366 28.0979 46.4462H40.9221C40.9221 46.4462 43.1233 42.73 41.7356 40.4477L39.9746 43.5634C34.9311 42.5574 35.4574 40.0349 32.3758 37.0543Z" fill="#F5F5DC"/>
<path d="M68.6 44L64.22 36.05H62.99V44H57.86V22.94H66.47C68.13 22.94 69.54 23.23 70.7 23.81C71.88 24.39 72.76 25.19 73.34 26.21C73.92 27.21 74.21 28.33 74.21 29.57C74.21 30.97 73.81 32.22 73.01 33.32C72.23 34.42 71.07 35.2 69.53 35.66L74.39 44H68.6ZM62.99 32.42H66.17C67.11 32.42 67.81 32.19 68.27 31.73C68.75 31.27 68.99 30.62 68.99 29.78C68.99 28.98 68.75 28.35 68.27 27.89C67.81 27.43 67.11 27.2 66.17 27.2H62.99V32.42ZM93.2103 35.36C93.2103 35.84 93.1803 36.34 93.1203 36.86H81.5103C81.5903 37.9 81.9203 38.7 82.5003 39.26C83.1003 39.8 83.8303 40.07 84.6903 40.07C85.9703 40.07 86.8603 39.53 87.3603 38.45H92.8203C92.5403 39.55 92.0303 40.54 91.2903 41.42C90.5703 42.3 89.6603 42.99 88.5603 43.49C87.4603 43.99 86.2303 44.24 84.8703 44.24C83.2303 44.24 81.7703 43.89 80.4903 43.19C79.2103 42.49 78.2103 41.49 77.4903 40.19C76.7703 38.89 76.4103 37.37 76.4103 35.63C76.4103 33.89 76.7603 32.37 77.4603 31.07C78.1803 29.77 79.1803 28.77 80.4603 28.07C81.7403 27.37 83.2103 27.02 84.8703 27.02C86.4903 27.02 87.9303 27.36 89.1903 28.04C90.4503 28.72 91.4303 29.69 92.1303 30.95C92.8503 32.21 93.2103 33.68 93.2103 35.36ZM87.9603 34.01C87.9603 33.13 87.6603 32.43 87.0603 31.91C86.4603 31.39 85.7103 31.13 84.8103 31.13C83.9503 31.13 83.2203 31.38 82.6203 31.88C82.0403 32.38 81.6803 33.09 81.5403 34.01H87.9603ZM103.447 39.2L107.077 27.26H112.537L106.597 44H100.267L94.3266 27.26H99.8166L103.447 39.2ZM117.276 25.52C116.376 25.52 115.636 25.26 115.056 24.74C114.496 24.2 114.216 23.54 114.216 22.76C114.216 21.96 114.496 21.3 115.056 20.78C115.636 20.24 116.376 19.97 117.276 19.97C118.156 19.97 118.876 20.24 119.436 20.78C120.016 21.3 120.306 21.96 120.306 22.76C120.306 23.54 120.016 24.2 119.436 24.74C118.876 25.26 118.156 25.52 117.276 25.52ZM119.826 27.26V44H114.696V27.26H119.826ZM132.874 39.65V44H130.264C128.404 44 126.954 43.55 125.914 42.65C124.874 41.73 124.354 40.24 124.354 38.18V31.52H122.314V27.26H124.354V23.18H129.484V27.26H132.844V31.52H129.484V38.24C129.484 38.74 129.604 39.1 129.844 39.32C130.084 39.54 130.484 39.65 131.044 39.65H132.874ZM134.711 35.6C134.711 33.88 135.031 32.37 135.671 31.07C136.331 29.77 137.221 28.77 138.341 28.07C139.461 27.37 140.711 27.02 142.091 27.02C143.271 27.02 144.301 27.26 145.181 27.74C146.081 28.22 146.771 28.85 147.251 29.63V27.26H152.381V44H147.251V41.63C146.751 42.41 146.051 43.04 145.151 43.52C144.271 44 143.241 44.24 142.061 44.24C140.701 44.24 139.461 43.89 138.341 43.19C137.221 42.47 136.331 41.46 135.671 40.16C135.031 38.84 134.711 37.32 134.711 35.6ZM147.251 35.63C147.251 34.35 146.891 33.34 146.171 32.6C145.471 31.86 144.611 31.49 143.591 31.49C142.571 31.49 141.701 31.86 140.981 32.6C140.281 33.32 139.931 34.32 139.931 35.6C139.931 36.88 140.281 37.9 140.981 38.66C141.701 39.4 142.571 39.77 143.591 39.77C144.611 39.77 145.471 39.4 146.171 38.66C146.891 37.92 147.251 36.91 147.251 35.63ZM161.222 21.8V44H156.092V21.8H161.222ZM167.52 25.52C166.62 25.52 165.88 25.26 165.3 24.74C164.74 24.2 164.46 23.54 164.46 22.76C164.46 21.96 164.74 21.3 165.3 20.78C165.88 20.24 166.62 19.97 167.52 19.97C168.4 19.97 169.12 20.24 169.68 20.78C170.26 21.3 170.55 21.96 170.55 22.76C170.55 23.54 170.26 24.2 169.68 24.74C169.12 25.26 168.4 25.52 167.52 25.52ZM170.07 27.26V44H164.94V27.26H170.07ZM178.588 39.77H185.848V44H172.858V39.92L179.818 31.49H172.918V27.26H185.698V31.34L178.588 39.77ZM204.451 35.36C204.451 35.84 204.421 36.34 204.361 36.86H192.751C192.831 37.9 193.161 38.7 193.741 39.26C194.341 39.8 195.071 40.07 195.931 40.07C197.211 40.07 198.101 39.53 198.601 38.45H204.061C203.781 39.55 203.271 40.54 202.531 41.42C201.811 42.3 200.901 42.99 199.801 43.49C198.701 43.99 197.471 44.24 196.111 44.24C194.471 44.24 193.011 43.89 191.731 43.19C190.451 42.49 189.451 41.49 188.731 40.19C188.011 38.89 187.651 37.37 187.651 35.63C187.651 33.89 188.001 32.37 188.701 31.07C189.421 29.77 190.421 28.77 191.701 28.07C192.981 27.37 194.451 27.02 196.111 27.02C197.731 27.02 199.171 27.36 200.431 28.04C201.691 28.72 202.671 29.69 203.371 30.95C204.091 32.21 204.451 33.68 204.451 35.36ZM199.201 34.01C199.201 33.13 198.901 32.43 198.301 31.91C197.701 31.39 196.951 31.13 196.051 31.13C195.191 31.13 194.461 31.38 193.861 31.88C193.281 32.38 192.921 33.09 192.781 34.01H199.201ZM226.624 40.28H218.764L217.504 44H212.134L219.754 22.94H225.694L233.314 44H227.884L226.624 40.28ZM225.304 36.32L222.694 28.61L220.114 36.32H225.304ZM240.763 22.94V44H235.633V22.94H240.763Z" fill="#F5F5DC"/>
</svg>
